<svg width="251" height="251" viewBox="0 0 251 251" fill="none" xmlns="http://www.w3.org/2000/svg">
<rect width="250" height="250" transform="translate(0.746094 0.574219)" fill="#56704E"/>
<path d="M161.663 159.866C162.293 167.382 159.749 175.117 154.023 180.894C148.296 186.671 140.584 189.283 133.062 188.72C132.433 181.203 134.977 173.468 140.703 167.691C146.429 161.914 154.141 159.303 161.663 159.866Z" fill="#FFC83D"/>
<path d="M148.038 149.421C140.532 157.448 129.687 162.261 117.847 161.72C106.009 161.179 95.6488 155.4 88.905 146.723C96.4118 138.695 107.256 133.882 119.096 134.423C130.935 134.964 141.295 140.744 148.038 149.421Z" fill="#FFC83D"/>
<path d="M84.4922 123.585C86.0603 104.788 95.5441 86.7687 112.064 74.8996C128.582 63.0309 148.685 59.7917 167 64.3023C165.432 83.0999 155.948 101.119 139.428 112.988C122.909 124.857 102.807 128.096 84.4922 123.585Z" fill="#FFC83D"/>
</svg>
