<svg width="24" height="25" viewBox="0 0 24 25" fill="none" xmlns="http://www.w3.org/2000/svg">
<g id="1">
<path id="Vector" d="M21 9.72894V9.67894C21 8.55884 21 7.99879 20.782 7.57096C20.5903 7.19464 20.2843 6.88868 19.908 6.69693C19.4802 6.47894 18.9201 6.47894 17.8 6.47894L3 6.47895M3 6.47895L3 17.2789C3 18.399 3 18.9591 3.21799 19.3869C3.40973 19.7632 3.7157 20.0692 4.09202 20.261C4.51984 20.4789 5.0799 20.4789 6.2 20.4789H7M3 6.47895L3 6.07894C3 5.51889 3 5.23886 3.109 5.02495C3.20487 4.83679 3.35785 4.68381 3.54601 4.58794C3.75992 4.47894 4.03995 4.47894 4.6 4.47894H9.33726C9.58185 4.47894 9.70415 4.47894 9.81923 4.50657C9.92127 4.53107 10.0188 4.57147 10.1083 4.6263C10.2092 4.68814 10.2957 4.77462 10.4686 4.94757L12 6.47894M16 14.4789L18 16.4789M11 21.4789V18.9789L18.5 11.4789L21 13.9789L13.5 21.4789H11Z" stroke="white" stroke-width="2" stroke-linecap="round" stroke-linejoin="round"/>
</g>
</svg>
