<svg width="251" height="251" viewBox="0 0 251 251" fill="none" xmlns="http://www.w3.org/2000/svg">
<rect width="250" height="250" transform="translate(0.537109 0.362305)" fill="#1B174A"/>
<path d="M91.0742 138.444L91.0742 72.2891H113.131L113.131 106.296C116.98 104.81 121.164 103.995 125.537 103.995C144.571 103.995 160.001 119.425 160.001 138.458V178.436H137.944V138.458C137.944 131.606 132.389 126.052 125.537 126.052C118.688 126.052 113.136 131.601 113.131 138.449C113.131 138.452 113.131 138.455 113.131 138.458L113.131 178.436H91.0742L91.0742 138.458C91.0742 138.454 91.0742 138.449 91.0742 138.444Z" fill="#815FF7"/>
<path d="M137.944 94.3455V72.2891H160.001V94.3455L137.944 94.3455Z" fill="#815FF7"/>
</svg>
