<svg width="24" height="25" viewBox="0 0 24 25" fill="none" xmlns="http://www.w3.org/2000/svg">
<g id="4">
<path id="Vector" d="M8 4.47894H7.2002C6.08009 4.47894 5.51962 4.47894 5.0918 4.69693C4.71547 4.88868 4.40973 5.19442 4.21799 5.57074C4 5.99856 4 6.55903 4 7.67914V17.2791C4 18.3992 4 18.959 4.21799 19.3868C4.40973 19.7631 4.71547 20.0694 5.0918 20.2612C5.5192 20.4789 6.07899 20.4789 7.19691 20.4789H8M8 4.47894H16.8002C17.9203 4.47894 18.4796 4.47894 18.9074 4.69693C19.2837 4.88868 19.5905 5.19442 19.7822 5.57074C20 5.99814 20 6.55794 20 7.67585V17.2825C20 18.4004 20 18.9594 19.7822 19.3868C19.5905 19.7631 19.2837 20.0694 18.9074 20.2612C18.48 20.4789 17.921 20.4789 16.8031 20.4789H8M8 4.47894V20.4789M12 11.4789H16M12 8.47894H16" stroke="white" stroke-width="2" stroke-linecap="round" stroke-linejoin="round"/>
</g>
</svg>
