<svg width="250" height="250" viewBox="0 0 250 250" fill="none" xmlns="http://www.w3.org/2000/svg">
<rect width="250" height="250" fill="#221D23"/>
<path fill-rule="evenodd" clip-rule="evenodd" d="M127.347 101.863C115.001 101.863 104.993 111.871 104.993 124.217V125.781H84V124.217C84 100.277 103.407 80.8701 127.347 80.8701V101.863Z" fill="url(#paint0_linear_1296_8980)"/>
<path fill-rule="evenodd" clip-rule="evenodd" d="M145.008 125.782V124.218H166.001V125.782C166.001 149.722 146.594 169.129 122.654 169.129V148.136C135 148.136 145.008 138.128 145.008 125.782Z" fill="url(#paint1_linear_1296_8980)"/>
<path fill-rule="evenodd" clip-rule="evenodd" d="M126.565 70.25V111.704L162.543 91.368L126.565 70.25ZM123.438 179.751L123.438 138.297L87.459 158.633L123.438 179.751Z" fill="#4951FF"/>
<defs>
<linearGradient id="paint0_linear_1296_8980" x1="125.494" y1="92.478" x2="89.927" y2="93.466" gradientUnits="userSpaceOnUse">
<stop stop-color="#3A41CE"/>
<stop offset="1" stop-color="#4951FF"/>
</linearGradient>
<linearGradient id="paint1_linear_1296_8980" x1="124.507" y1="157.521" x2="160.074" y2="156.533" gradientUnits="userSpaceOnUse">
<stop stop-color="#3A41CE"/>
<stop offset="1" stop-color="#4951FF"/>
</linearGradient>
</defs>
</svg>
