<svg width="251" height="251" viewBox="0 0 251 251" fill="none" xmlns="http://www.w3.org/2000/svg">
<rect width="250" height="250" transform="translate(0.595703 0.227539)" fill="#F8D84A"/>
<path d="M103.957 78.0137H87.7652C86.896 78.0137 86.1914 78.7183 86.1914 79.5875V110.099L103.957 78.0137Z" fill="#35293B"/>
<path d="M86.1914 119.913C86.2426 119.915 86.2942 119.916 86.3463 119.916H111.033C112.965 119.916 114.483 121.567 114.318 123.489L112.182 148.402C111.879 151.942 116.632 153.385 118.354 150.275L144.006 103.948C145.221 101.754 143.631 99.0635 141.12 99.0635H116.433C114.501 99.0635 112.983 97.4127 113.148 95.4909L114.646 78.0137H139.558C162.514 78.0137 172.804 106.887 155.05 121.484L141.171 132.895C140.262 133.642 140.083 134.967 140.761 135.93L164.711 169.962C165.444 171.005 164.699 172.442 163.423 172.442H87.7652C86.896 172.442 86.1914 171.737 86.1914 170.868V119.913Z" fill="#35293B"/>
</svg>
