<svg width="24" height="25" viewBox="0 0 24 25" fill="none" xmlns="http://www.w3.org/2000/svg">
<g id="3">
<g id="Vector">
<path d="M13.6006 21.555L19.0608 18.4025C19.6437 18.066 19.9346 17.8977 20.1465 17.6623C20.3341 17.454 20.4759 17.2087 20.5625 16.9421C20.6602 16.6416 20.6602 16.3057 20.6602 15.6358V9.32162C20.6602 8.65172 20.6602 8.31588 20.5625 8.01532C20.4759 7.74876 20.3341 7.50323 20.1465 7.29494C19.9355 7.06055 19.6453 6.89299 19.0674 6.55937L13.5996 3.40253C13.0167 3.066 12.7259 2.89808 12.416 2.83222C12.1419 2.77394 11.8584 2.77394 11.5843 2.83222C11.2744 2.89808 10.9826 3.066 10.3997 3.40253L4.93843 6.5556C4.35623 6.89174 4.06535 7.05967 3.85352 7.29494C3.66597 7.50323 3.52434 7.74876 3.43773 8.01532C3.33984 8.31659 3.33984 8.6533 3.33984 9.32636V15.6313C3.33984 16.3044 3.33984 16.6409 3.43773 16.9421C3.52434 17.2087 3.66597 17.454 3.85352 17.6623C4.06548 17.8977 4.35657 18.066 4.93945 18.4025L10.3997 21.555C10.9826 21.8915 11.2744 22.0595 11.5843 22.1254C11.8584 22.1837 12.1419 22.1837 12.416 22.1254C12.7259 22.0595 13.0177 21.8915 13.6006 21.555Z" stroke="white" stroke-width="2" stroke-linecap="round" stroke-linejoin="round"/>
<path d="M9 12.4787C9 14.1356 10.3431 15.4787 12 15.4787C13.6569 15.4787 15 14.1356 15 12.4787C15 10.8218 13.6569 9.4787 12 9.4787C10.3431 9.4787 9 10.8218 9 12.4787Z" stroke="white" stroke-width="2" stroke-linecap="round" stroke-linejoin="round"/>
</g>
</g>
</svg>
