<svg width="251" height="61" viewBox="0 0 251 61" fill="none" xmlns="http://www.w3.org/2000/svg">
<g clip-path="url(#clip0_5222_12627)">
<path d="M72.8351 15.6523L60.6523 0.677673H29.434L41.6168 15.6523L29.434 30.6269L17.2513 15.6523L29.434 0.677673H13.9518L1.76904 15.6523L13.9518 30.6269L1.76904 45.6015L13.9518 60.5761H45.297L32.9873 45.6015L45.297 30.6269L57.4797 45.6015L45.297 60.5761H60.6523L72.8351 45.6015L60.6523 30.6269L72.8351 15.6523Z" fill="url(#paint0_linear_5222_12627)"/>
<path d="M84.2563 55.9112L107.324 4.93088H115.134L138.491 55.9112H129.018L122.799 41.5933L126.559 44.1243H95.971L99.8758 41.5933L93.657 55.9112H84.2563ZM111.157 14.91L100.961 39.0624L99.0804 36.8207H123.377L121.859 39.0624L111.446 14.91H111.157ZM143.336 55.9112V28.7217C143.336 27.179 143.287 25.6123 143.191 24.0214C143.143 22.4305 143.022 20.8878 142.829 19.3934H151.579L152.592 29.3725H151.145C151.627 26.9621 152.423 24.9614 153.532 23.3706C154.689 21.7797 156.087 20.5986 157.726 19.8273C159.365 19.0559 161.149 18.6703 163.077 18.6703C163.945 18.6703 164.644 18.7185 165.174 18.8149C165.704 18.8631 166.235 18.9836 166.765 19.1764L166.693 27.1308C165.777 26.7452 164.981 26.5041 164.306 26.4077C163.68 26.3113 162.884 26.2631 161.92 26.2631C159.847 26.2631 158.087 26.6969 156.641 27.5647C155.243 28.4324 154.183 29.6377 153.459 31.1803C152.784 32.723 152.447 34.4826 152.447 36.4591V55.9112H143.336ZM171.796 55.9112V19.3934H180.835V55.9112H171.796ZM171.29 12.5237V3.70156H181.342V12.5237H171.29ZM204.752 56.6343C201.57 56.6343 198.774 55.8871 196.364 54.3926C193.953 52.85 192.073 50.6565 190.724 47.8122C189.374 44.9679 188.699 41.5692 188.699 37.6161C188.699 33.663 189.374 30.2885 190.724 27.4924C192.073 24.6481 193.953 22.4787 196.364 20.9843C198.774 19.4416 201.57 18.6703 204.752 18.6703C207.837 18.6703 210.537 19.4416 212.851 20.9843C215.213 22.4787 216.78 24.5035 217.551 27.0585H216.756L217.551 19.3934H226.229C226.084 20.8878 225.94 22.4064 225.795 23.9491C225.699 25.4917 225.65 27.0103 225.65 28.5048V55.9112H216.684L216.611 48.3907H217.479C216.708 50.8975 215.141 52.8982 212.779 54.3926C210.417 55.8871 207.741 56.6343 204.752 56.6343ZM207.283 49.6923C210.127 49.6923 212.417 48.704 214.153 46.7275C215.888 44.7028 216.756 41.6656 216.756 37.6161C216.756 33.5666 215.888 30.5536 214.153 28.5771C212.417 26.6005 210.127 25.6123 207.283 25.6123C204.439 25.6123 202.149 26.6005 200.413 28.5771C198.678 30.5536 197.81 33.5666 197.81 37.6161C197.81 41.6656 198.654 44.7028 200.341 46.7275C202.077 48.704 204.391 49.6923 207.283 49.6923ZM235.493 55.9112V2.68919H244.532V55.9112H235.493Z" fill="white"/>
</g>
<defs>
<linearGradient id="paint0_linear_5222_12627" x1="37.302" y1="0.677673" x2="37.302" y2="60.5761" gradientUnits="userSpaceOnUse">
<stop stop-color="#7EAAFF"/>
<stop offset="1" stop-color="#FFF9BD"/>
</linearGradient>
<clipPath id="clip0_5222_12627">
<rect width="250" height="59.6447" fill="white" transform="translate(0.5 0.677673)"/>
</clipPath>
</defs>
</svg>
